<svg width="51" height="65" viewBox="0 0 51 65" fill="none" xmlns="http://www.w3.org/2000/svg">
<path fill-rule="evenodd" clip-rule="evenodd" d="M4.50134 33.6688C6.07016 27.29 5.96743 21.1472 6.15545 14.6771C6.19198 13.4135 5.19938 12.363 3.9396 12.3249C2.67907 12.2868 1.62707 13.284 1.58977 14.5476C1.41165 20.6829 1.55553 26.5211 0.0666351 32.5802C-0.234797 33.8058 0.514995 35.0465 1.739 35.3434C2.96223 35.6479 4.20067 34.8943 4.50134 33.6688Z" fill="white"/>
<path fill-rule="evenodd" clip-rule="evenodd" d="M17.8304 46.0305C28.4734 36.3025 38.5014 23.7884 45.5105 11.1526C46.1217 10.0489 45.7236 8.65584 44.6213 8.04689C43.5191 7.43794 42.1277 7.83379 41.5165 8.93752C34.7388 21.1547 25.0405 33.2577 14.7491 42.6584C13.8189 43.511 13.7542 44.9572 14.6045 45.8859C15.4547 46.8145 16.9003 46.8831 17.8304 46.0305Z" fill="white"/>
<path fill-rule="evenodd" clip-rule="evenodd" d="M20.526 56.6568C30.2602 58.2629 40.2935 55.5227 49.1446 51.6482C50.2994 51.1382 50.8261 49.7909 50.3214 48.6415C49.816 47.4845 48.4678 46.9593 47.3131 47.4617C39.2521 50.9936 30.1353 53.6121 21.2697 52.1506C20.0259 51.9451 18.8499 52.79 18.6451 54.0308C18.4396 55.2715 19.283 56.4513 20.526 56.6568Z" fill="white"/>
</svg>
