<svg width="32" height="32" viewBox="0 0 32 32" fill="none" xmlns="http://www.w3.org/2000/svg">
<path d="M21.3332 4C20.6259 4 19.9477 4.28095 19.4476 4.78105C18.9475 5.28115 18.6665 5.95942 18.6665 6.66667V14.6667C18.6665 15.3739 18.9475 16.0522 19.4476 16.5523C19.9477 17.0524 20.6259 17.3333 21.3332 17.3333C21.6868 17.3333 22.0259 17.4738 22.276 17.7239C22.526 17.9739 22.6665 18.313 22.6665 18.6667V20C22.6665 20.7072 22.3856 21.3855 21.8855 21.8856C21.3854 22.3857 20.7071 22.6667 19.9998 22.6667C19.6462 22.6667 19.3071 22.8071 19.057 23.0572C18.807 23.3072 18.6665 23.6464 18.6665 24V26.6667C18.6665 27.0203 18.807 27.3594 19.057 27.6095C19.3071 27.8595 19.6462 28 19.9998 28C22.1216 28 24.1564 27.1571 25.6567 25.6569C27.157 24.1566 27.9998 22.1217 27.9998 20V6.66667C27.9998 5.95942 27.7189 5.28115 27.2188 4.78105C26.7187 4.28095 26.0404 4 25.3332 4H21.3332Z" stroke="#DBEAFE" stroke-width="2.66667" stroke-linecap="round" stroke-linejoin="round"/>
<path d="M6.66667 4C5.95942 4 5.28115 4.28095 4.78105 4.78105C4.28095 5.28115 4 5.95942 4 6.66667V14.6667C4 15.3739 4.28095 16.0522 4.78105 16.5523C5.28115 17.0524 5.95942 17.3333 6.66667 17.3333C7.02029 17.3333 7.35943 17.4738 7.60948 17.7239C7.85952 17.9739 8 18.313 8 18.6667V20C8 20.7072 7.71905 21.3855 7.21895 21.8856C6.71885 22.3857 6.04058 22.6667 5.33333 22.6667C4.97971 22.6667 4.64057 22.8071 4.39052 23.0572C4.14048 23.3072 4 23.6464 4 24V26.6667C4 27.0203 4.14048 27.3594 4.39052 27.6095C4.64057 27.8595 4.97971 28 5.33333 28C7.45507 28 9.4899 27.1571 10.9902 25.6569C12.4905 24.1566 13.3333 22.1217 13.3333 20V6.66667C13.3333 5.95942 13.0524 5.28115 12.5523 4.78105C12.0522 4.28095 11.3739 4 10.6667 4H6.66667Z" stroke="#DBEAFE" stroke-width="2.66667" stroke-linecap="round" stroke-linejoin="round"/>
</svg>
