<svg width="29" height="29" viewBox="0 0 29 29" fill="none" xmlns="http://www.w3.org/2000/svg">
<path d="M16.9169 2.41663V9.66663C16.9167 10.072 17.0185 10.4709 17.2129 10.8266L23.8709 23.0066C24.0722 23.3747 24.1743 23.7889 24.1671 24.2084C24.1599 24.6278 24.0435 25.0382 23.8295 25.3991C23.6156 25.76 23.3113 26.059 22.9467 26.2666C22.5822 26.4743 22.1698 26.5834 21.7502 26.5833H7.25023C6.83067 26.5834 6.41831 26.4743 6.05373 26.2666C5.68915 26.059 5.3849 25.76 5.17092 25.3991C4.95695 25.0382 4.84061 24.6278 4.83337 24.2084C4.82612 23.7889 4.92822 23.3747 5.12961 23.0066L11.7875 10.8266C11.9819 10.4709 12.0837 10.072 12.0836 9.66663V2.41663" stroke="#00A63E" stroke-width="2.33" stroke-linecap="round" stroke-linejoin="round"/>
<path d="M7.79736 18.125H21.2026" stroke="#00A63E" stroke-width="2.33" stroke-linecap="round" stroke-linejoin="round"/>
<path d="M10.271 2.41663H18.7293" stroke="#00A63E" stroke-width="2.33" stroke-linecap="round" stroke-linejoin="round"/>
</svg>
