<svg width="23" height="23" viewBox="0 0 23 23" fill="none" xmlns="http://www.w3.org/2000/svg">
<path d="M14.8321 12.3529L16.284 20.5237C16.3003 20.6199 16.2868 20.7188 16.2453 20.8071C16.2039 20.8954 16.1364 20.969 16.052 21.018C15.9676 21.0669 15.8703 21.089 15.773 21.0811C15.6758 21.0733 15.5832 21.0359 15.5078 20.9741L12.0769 18.399C11.9113 18.2753 11.7101 18.2085 11.5034 18.2085C11.2966 18.2085 11.0954 18.2753 10.9298 18.399L7.49321 20.9731C7.41781 21.0349 7.32537 21.0722 7.22823 21.08C7.13109 21.0879 7.03386 21.0659 6.94952 21.0171C6.86517 20.9683 6.79773 20.8949 6.75618 20.8067C6.71463 20.7185 6.70095 20.6198 6.71696 20.5237L8.16788 12.3529" stroke="#88E6AB" stroke-width="2" stroke-linecap="round" stroke-linejoin="round"/>
<path d="M11.5 13.4167C14.6756 13.4167 17.25 10.8423 17.25 7.66667C17.25 4.49103 14.6756 1.91667 11.5 1.91667C8.32436 1.91667 5.75 4.49103 5.75 7.66667C5.75 10.8423 8.32436 13.4167 11.5 13.4167Z" stroke="#88E6AB" stroke-width="2" stroke-linecap="round" stroke-linejoin="round"/>
</svg>
