<svg width="29" height="29" viewBox="0 0 29 29" fill="none" xmlns="http://www.w3.org/2000/svg">
<path d="M13.2916 24.1666C11.1698 24.1731 9.12315 23.3818 7.55747 21.9498C5.99179 20.5179 5.02148 18.5497 4.83898 16.4358C4.65648 14.3219 5.27513 12.2166 6.57223 10.5375C7.86933 8.8584 9.75012 7.7281 11.8416 7.37079C18.7291 6.04163 20.5416 5.41329 22.9583 2.41663C24.1666 4.83329 25.3749 7.46746 25.3749 12.0833C25.3749 18.7291 19.5991 24.1666 13.2916 24.1666Z" stroke="#0092B8" stroke-width="2.33" stroke-linecap="round" stroke-linejoin="round"/>
<path d="M2.4165 25.375C2.4165 21.75 4.65192 18.8983 8.55484 18.125C11.479 17.545 14.4998 15.7083 15.7082 14.5" stroke="#0092B8" stroke-width="2.33" stroke-linecap="round" stroke-linejoin="round"/>
</svg>
