<svg width="28" height="28" viewBox="0 0 28 28" fill="none" xmlns="http://www.w3.org/2000/svg">
<path d="M17.4998 2.33325H6.99984C6.381 2.33325 5.78751 2.57908 5.34992 3.01667C4.91234 3.45425 4.6665 4.04775 4.6665 4.66659V23.3333C4.6665 23.9521 4.91234 24.5456 5.34992 24.9832C5.78751 25.4208 6.381 25.6666 6.99984 25.6666H20.9998C21.6187 25.6666 22.2122 25.4208 22.6498 24.9832C23.0873 24.5456 23.3332 23.9521 23.3332 23.3333V8.16659L17.4998 2.33325Z" stroke="#00A63E" stroke-width="2.33333" stroke-linecap="round" stroke-linejoin="round"/>
<path d="M16.3335 2.33325V6.99992C16.3335 7.61876 16.5793 8.21225 17.0169 8.64983C17.4545 9.08742 18.048 9.33325 18.6668 9.33325H23.3335" stroke="#00A63E" stroke-width="2.33333" stroke-linecap="round" stroke-linejoin="round"/>
<path d="M10.5 17.5001L12.8333 19.8334L17.5 15.1667" stroke="#00A63E" stroke-width="2.33333" stroke-linecap="round" stroke-linejoin="round"/>
</svg>
