<svg width="28" height="28" viewBox="0 0 28 28" fill="none" xmlns="http://www.w3.org/2000/svg">
<path d="M18.0567 15.0383L19.8242 24.9853C19.844 25.1025 19.8276 25.2228 19.7771 25.3304C19.7266 25.4379 19.6445 25.5275 19.5418 25.5871C19.439 25.6467 19.3205 25.6735 19.2021 25.664C19.0837 25.6544 18.9711 25.609 18.8792 25.5337L14.7025 22.3988C14.5009 22.2482 14.256 22.1668 14.0043 22.1668C13.7526 22.1668 13.5077 22.2482 13.306 22.3988L9.12236 25.5325C9.03057 25.6077 8.91804 25.6531 8.79978 25.6626C8.68151 25.6722 8.56315 25.6455 8.46047 25.586C8.35779 25.5266 8.27569 25.4372 8.2251 25.3299C8.17452 25.2226 8.15787 25.1024 8.17736 24.9853L9.9437 15.0383" stroke="#00A63E" stroke-width="2.33" stroke-linecap="round" stroke-linejoin="round"/>
<path d="M14 16.3333C17.866 16.3333 21 13.1992 21 9.33325C21 5.46726 17.866 2.33325 14 2.33325C10.134 2.33325 7 5.46726 7 9.33325C7 13.1992 10.134 16.3333 14 16.3333Z" stroke="#00A63E" stroke-width="2.33" stroke-linecap="round" stroke-linejoin="round"/>
</svg>
