<svg width="28" height="28" viewBox="0 0 28 28" fill="none" xmlns="http://www.w3.org/2000/svg">
<path d="M7 10.5C8.933 10.5 10.5 8.933 10.5 7C10.5 5.067 8.933 3.5 7 3.5C5.067 3.5 3.5 5.067 3.5 7C3.5 8.933 5.067 10.5 7 10.5Z" stroke="#F54900" stroke-width="2.33" stroke-linecap="round" stroke-linejoin="round"/>
<path d="M9.47314 9.47339L13.9998 14.0001" stroke="#F54900" stroke-width="2.33" stroke-linecap="round" stroke-linejoin="round"/>
<path d="M23.3331 4.66663L9.47314 18.5266" stroke="#F54900" stroke-width="2.33" stroke-linecap="round" stroke-linejoin="round"/>
<path d="M7 24.5C8.933 24.5 10.5 22.933 10.5 21C10.5 19.067 8.933 17.5 7 17.5C5.067 17.5 3.5 19.067 3.5 21C3.5 22.933 5.067 24.5 7 24.5Z" stroke="#F54900" stroke-width="2.33" stroke-linecap="round" stroke-linejoin="round"/>
<path d="M17.2666 17.2667L23.3333 23.3334" stroke="#F54900" stroke-width="2.33" stroke-linecap="round" stroke-linejoin="round"/>
</svg>
