<svg width="28" height="28" viewBox="0 0 28 28" fill="none" xmlns="http://www.w3.org/2000/svg">
<path d="M10.5 14H10.5117" stroke="#9810FA" stroke-width="2.33" stroke-linecap="round" stroke-linejoin="round"/>
<path d="M17.5 14H17.5117" stroke="#9810FA" stroke-width="2.33" stroke-linecap="round" stroke-linejoin="round"/>
<path d="M11.6665 18.6667C12.2498 19.0167 13.0665 19.25 13.9998 19.25C14.9332 19.25 15.7498 19.0167 16.3332 18.6667" stroke="#9810FA" stroke-width="2.33" stroke-linecap="round" stroke-linejoin="round"/>
<path d="M22.1666 7.35C23.2236 8.67495 23.9441 10.2361 24.2666 11.9C24.6611 12.0911 24.9938 12.3894 25.2266 12.7608C25.4594 13.1322 25.5828 13.5617 25.5828 14C25.5828 14.4383 25.4594 14.8678 25.2266 15.2392C24.9938 15.6106 24.6611 15.9089 24.2666 16.1C23.7629 18.4491 22.4689 20.5544 20.6006 22.0646C18.7322 23.5749 16.4024 24.3987 13.9999 24.3987C11.5975 24.3987 9.26767 23.5749 7.39928 22.0646C5.53089 20.5544 4.23691 18.4491 3.73325 16.1C3.33875 15.9089 3.00605 15.6106 2.77325 15.2392C2.54046 14.8678 2.41699 14.4383 2.41699 14C2.41699 13.5617 2.54046 13.1322 2.77325 12.7608C3.00605 12.3894 3.33875 12.0911 3.73325 11.9C4.21656 9.53225 5.50179 7.40369 7.37211 5.87343C9.24243 4.34316 11.5834 3.50488 13.9999 3.5C16.3333 3.5 18.0833 4.78333 18.0833 6.41667C18.0833 8.05 17.0333 9.33333 15.7499 9.33333C14.8166 9.33333 13.9999 8.86667 13.9999 8.16667" stroke="#9810FA" stroke-width="2.33" stroke-linecap="round" stroke-linejoin="round"/>
</svg>
