<svg width="28" height="28" viewBox="0 0 28 28" fill="none" xmlns="http://www.w3.org/2000/svg">
<path d="M12.2502 23.9167L23.9168 12.25C24.462 11.7157 24.8958 11.0787 25.1933 10.3758C25.4907 9.6728 25.6458 8.91785 25.6497 8.15457C25.6535 7.39129 25.506 6.63481 25.2157 5.92889C24.9254 5.22296 24.498 4.58159 23.9583 4.04186C23.4186 3.50213 22.7772 3.07475 22.0713 2.78443C21.3653 2.49412 20.6089 2.34662 19.8456 2.35048C19.0823 2.35433 18.3274 2.50946 17.6244 2.80689C16.9214 3.10433 16.2844 3.53816 15.7502 4.08332L4.0835 15.75C3.53835 16.2842 3.10451 16.9213 2.80708 17.6242C2.50964 18.3272 2.35451 19.0821 2.35066 19.8454C2.3468 20.6087 2.4943 21.3652 2.78462 22.0711C3.07494 22.777 3.50232 23.4184 4.04204 23.9581C4.58177 24.4978 5.22314 24.9252 5.92907 25.2155C6.635 25.5059 7.39147 25.6533 8.15475 25.6495C8.91804 25.6456 9.67298 25.4905 10.3759 25.1931C11.0789 24.8956 11.7159 24.4618 12.2502 23.9167Z" stroke="#0D99FF" stroke-width="2.66667" stroke-linecap="round" stroke-linejoin="round"/>
<path d="M9.9165 9.91669L18.0832 18.0834" stroke="#0D99FF" stroke-width="2.66667" stroke-linecap="round" stroke-linejoin="round"/>
</svg>
